# xmcd
#
# Track frame offsets:
#	150
#	14546
#	31126
#	46684
#	59689
#	81282
#	104088
#	123896
#	140672
#	154169
#	176256
#	201403
#
# Disc length: 2970 seconds
#
# Revision: 0
# Processed by: cddbd v1.5.2PL0 Copyright (c) Steve Scherf et al.
# Submitted via: EasyCDDAExtractor 2010.6.0.0
#
DISCID=a40b980c
DTITLE=Various Artist - Closer To Home
DYEAR=2007
DGENRE=Blues
TTITLE0=Nick Charles - In The Light
TTITLE1=Nick Charles - City Up On High
TTITLE2=Nick Charles - P.A.C.
TTITLE3=Nick Charles - Needing You
TTITLE4=Nick Charles - Meditation Rag
TTITLE5=Nick Charles - You Can't Change A Thing
TTITLE6=Nick Charles - Las Cruces
TTITLE7=Nick Charles - George Town
TTITLE8=Bob Dylan - One Too Many Mornings
TTITLE9=Nick Charles - New Memphis Blues
TTITLE10=Nick Charles - Elizabeth Mart, Part 1 and Part 2
TTITLE11=Jerome Kern and Otto Harbach - Yesterdays
EXTD=
EXTT0=
EXTT1=
EXTT2=
EXTT3=
EXTT4=
EXTT5=
EXTT6=
EXTT7=
EXTT8=
EXTT9=
EXTT10=
EXTT11=
PLAYORDER=
